<svg xmlns="http://www.w3.org/2000/svg" viewBox="0 0 256 256" width="256" height="256" role="img" aria-label="WiFiHound logo">
  <defs>
    <linearGradient id="wh-accent" x1="0" y1="0" x2="1" y2="1">
      <stop offset="0" stop-color="#22d3ee"/>
      <stop offset="0.55" stop-color="#34d399"/>
      <stop offset="1" stop-color="#10b981"/>
    </linearGradient>
    <linearGradient id="wh-hat" x1="0" y1="0" x2="1" y2="1">
      <stop offset="0" stop-color="#c79a63"/>
      <stop offset="1" stop-color="#7a5230"/>
    </linearGradient>
    <linearGradient id="wh-bill" x1="0" y1="0" x2="0" y2="1">
      <stop offset="0" stop-color="#a87c49"/>
      <stop offset="1" stop-color="#6b4622"/>
    </linearGradient>
    <radialGradient id="wh-bg" cx="0.5" cy="0.42" r="0.65">
      <stop offset="0" stop-color="#13212b"/>
      <stop offset="1" stop-color="#0a1016"/>
    </radialGradient>
    <filter id="wh-glow" x="-30%" y="-30%" width="160%" height="160%">
      <feGaussianBlur stdDeviation="2.4" result="b"/>
      <feMerge>
        <feMergeNode in="b"/>
        <feMergeNode in="SourceGraphic"/>
      </feMerge>
    </filter>
    <clipPath id="wh-crown-clip">
      <path d="M66 94 C 62 66, 80 48, 96 47 C 112 48, 130 66, 126 94 C 116 99, 76 99, 66 94 Z"/>
    </clipPath>
  </defs>

  <!-- radar badge -->
  <circle cx="128" cy="128" r="120" fill="url(#wh-bg)" stroke="url(#wh-accent)" stroke-width="4"/>
  <circle cx="128" cy="128" r="104" fill="none" stroke="#1f3b44" stroke-width="1.5" stroke-dasharray="3 7"/>
  <path d="M128 128 L128 24 A104 104 0 0 1 214 80 Z" fill="url(#wh-accent)" opacity="0.06"/>

  <!-- Wi-Fi signal arcs broadcast forward from the snout -->
  <g fill="none" stroke="url(#wh-accent)" stroke-linecap="round" filter="url(#wh-glow)">
    <path d="M168 110 a34 34 0 0 1 0 52" stroke-width="7" opacity="0.95"/>
    <path d="M184 95 a58 58 0 0 1 0 82" stroke-width="7" opacity="0.55"/>
    <path d="M200 80 a82 82 0 0 1 0 112" stroke-width="7" opacity="0.28"/>
  </g>

  <!-- hound head in profile, snout pointing right toward the signal -->
  <g filter="url(#wh-glow)">
    <path fill="url(#wh-accent)" d="
      M156 144
      C 150 128, 142 116, 128 111
      C 122 100, 116 92, 106 91
      C 96 90, 88 96, 86 106
      C 72 110, 62 128, 64 152
      C 66 174, 78 188, 90 183
      C 93 179, 93 167, 96 158
      C 101 173, 113 183, 127 179
      C 141 175, 150 163, 154 154
      Z"/>
    <path fill="#0a1016" opacity="0.2" d="
      M86 108 C 74 113, 66 131, 68 154 C 70 174, 80 187, 92 182
      C 86 165, 84 136, 91 113 C 90 109, 89 107, 86 108 Z"/>
    <circle cx="150" cy="143" r="6.5" fill="#0a1016"/>
    <circle cx="114" cy="116" r="6.5" fill="#0a1016"/>
  </g>

  <!-- deerstalker (detective) cap -->
  <g filter="url(#wh-glow)" transform="translate(0,5)">
    <!-- back bill (points left, behind the head) -->
    <path fill="url(#wh-bill)" d="M76 92 C 58 87, 44 91, 39 98 C 47 101, 62 100, 80 98 C 81 95, 79 92, 76 92 Z"/>
    <!-- front bill (peak over the brow, points right) -->
    <path fill="url(#wh-bill)" d="M116 92 C 134 87, 150 91, 156 99 C 147 102, 131 101, 113 99 C 111 96, 113 93, 116 92 Z"/>

    <!-- crown -->
    <path fill="url(#wh-hat)" d="M66 94 C 62 66, 80 48, 96 47 C 112 48, 130 66, 126 94 C 116 99, 76 99, 66 94 Z"/>

    <!-- subtle tweed crosshatch, clipped to the crown -->
    <g clip-path="url(#wh-crown-clip)" stroke="#5a3c1d" stroke-width="1.2" opacity="0.35">
      <line x1="58" y1="64" x2="86" y2="104"/>
      <line x1="72" y1="50" x2="104" y2="104"/>
      <line x1="88" y1="44" x2="120" y2="100"/>
      <line x1="104" y1="44" x2="132" y2="92"/>
      <line x1="120" y1="50" x2="138" y2="80"/>
      <line x1="138" y1="64" x2="110" y2="104"/>
      <line x1="124" y1="50" x2="92" y2="104"/>
      <line x1="108" y1="44" x2="76" y2="100"/>
      <line x1="92" y1="44" x2="64" y2="92"/>
      <line x1="76" y1="50" x2="58" y2="80"/>
    </g>

    <!-- folded ear flaps tucked against the crown -->
    <path fill="url(#wh-bill)" d="M66 92 C 62 80, 64 70, 70 64 C 74 74, 74 84, 72 94 C 70 95, 67 94, 66 92 Z"/>
    <path fill="url(#wh-bill)" d="M126 92 C 130 80, 128 70, 122 64 C 118 74, 118 84, 120 94 C 122 95, 125 94, 126 92 Z"/>

    <!-- center seam -->
    <path fill="none" stroke="#4a3219" stroke-width="2" opacity="0.7" d="M96 49 C 94 64, 95 80, 96 96"/>

    <!-- ribbon bow tying the flaps on top -->
    <g>
      <path fill="#8a5a2e" d="M96 50 L82 41 C 79 47, 80 55, 86 56 Z"/>
      <path fill="#8a5a2e" d="M96 50 L110 41 C 113 47, 112 55, 106 56 Z"/>
      <circle cx="96" cy="50" r="4" fill="#a87c49"/>
    </g>
  </g>
</svg>
